<?xml version="1.0" encoding="UTF-8"?>
<svg width="30px" height="30px" viewBox="0 0 30 30" version="1.1" xmlns="http://www.w3.org/2000/svg" xmlns:xlink="http://www.w3.org/1999/xlink">
    <!-- Generator: Sketch 52.5 (67469) - http://www.bohemiancoding.com/sketch -->
    <title>icon/报表 copy 3</title>
    <desc>Created with Sketch.</desc>
    <g id="icon/报表-copy-3" stroke="none" stroke-width="1" fill="none" fill-rule="evenodd">
        <g id="资源-9" transform="translate(5.000000, 7.000000)" fill="#FFFFFF" fill-rule="nonzero">
            <path d="M19,15 C19.5522847,15 20,15.4477153 20,16 C20,16.5522847 19.5522847,17 19,17 L0.52,17 C0.23281193,17 1.05546738e-15,16.7671881 0,16.48 L0,1 C6.76353751e-17,0.44771525 0.44771525,1.74253915e-15 1,1.77635684e-15 C1.55228475,1.81017453e-15 2,0.44771525 2,1 L2,15 L19,15 Z M4.43,10.64 C4.16778708,10.6577201 3.90913828,10.5715038 3.71,10.4 C3.32885712,10.0111565 3.32885712,9.38884351 3.71,9 L8.59,4.1 C8.77626064,3.91525584 9.02766012,3.81110462 9.29,3.81 C9.55580298,3.80846324 9.81128117,3.91281349 10,4.1 L13.21,7.3 L16.86,3.64 C17.0487188,3.45281349 17.304197,3.34846324 17.57,3.35 C17.656388,3.3401714 17.743612,3.3401714 17.83,3.35 C18.1769428,3.44208456 18.4479154,3.71305723 18.54,4.06 C18.6455944,4.41575478 18.5455008,4.80072997 18.28,5.06 L13.92,9.42 C13.7296579,9.60352859 13.474377,9.70420277 13.21,9.7 C12.9490724,9.70156748 12.6978666,9.60108515 12.51,9.42 L9.31,6.22 L5.11,10.37 C4.92557695,10.5426652 4.68263487,10.6391275 4.43,10.64 Z" id="合并形状"></path>
        </g>
    </g>
</svg>