<?xml version="1.0" encoding="UTF-8"?>
<svg width="30px" height="30px" viewBox="0 0 30 30" version="1.1" xmlns="http://www.w3.org/2000/svg" xmlns:xlink="http://www.w3.org/1999/xlink">
    <!-- Generator: Sketch 52.5 (67469) - http://www.bohemiancoding.com/sketch -->
    <title>icon/身份信息卡 copy 3</title>
    <desc>Created with Sketch.</desc>
    <g id="icon/身份信息卡-copy-3" stroke="none" stroke-width="1" fill="none" fill-rule="evenodd">
        <g id="icon-身份信息卡" transform="translate(3.000000, 5.000000)" fill="#FFFFFF" fill-rule="nonzero">
            <path d="M19,5 L13,5 C12.4477153,5 12,5.44771525 12,6 C12,6.55228475 12.4477153,7 13,7 L19,7 C19.5522847,7 20,6.55228475 20,6 C20,5.44771525 19.5522847,5 19,5 Z M19,9 L15,9 C14.4477153,9 14,9.44771525 14,10 C14,10.5522847 14.4477153,11 15,11 L19,11 C19.5522847,11 20,10.5522847 20,10 C20,9.44771525 19.5522847,9 19,9 Z M19,13 L15,13 C14.4477153,13 14,13.4477153 14,14 C14,14.5522847 14.4477153,15 15,15 L19,15 C19.5522847,15 20,14.5522847 20,14 C20,13.4477153 19.5522847,13 19,13 Z M22,18 L2,18 L2,2 L22,2 L22,18 Z M22,0 L2,0 C0.8954305,-6.76353751e-17 1.3527075e-16,0.8954305 0,2 L0,18 C1.3527075e-16,19.1045695 0.8954305,20 2,20 L22,20 C23.1045695,20 24,19.1045695 24,18 L24,2 C24,0.8954305 23.1045695,6.76353751e-17 22,0 Z M11,13.44 L5,13.44 L5,12.79 C5.9533478,12.3858864 6.96708635,12.1425892 8,12.07 C9.03331482,12.1468606 10.0468977,12.3934991 11,12.8 L11,13.44 Z M7.11,7.8 C7.10732576,7.58875172 7.18937559,7.38523354 7.33782017,7.23490992 C7.48626475,7.08458629 7.6887348,6.99998307 7.9,7 C8.3418278,7 8.7,7.3581722 8.7,7.8 L8.7,9.11 C8.70271362,9.32299349 8.61929983,9.5280571 8.46867846,9.67867846 C8.3180571,9.82929983 8.11299349,9.91271362 7.9,9.91 C7.6887348,9.91001693 7.48626475,9.82541371 7.33782017,9.67509008 C7.18937559,9.52476646 7.10732576,9.32124828 7.11,9.11 L7.11,7.8 Z M12,11.05 C11.4565713,10.8176996 10.898751,10.6206253 10.33,10.46 C10.5621489,10.0476502 10.6860048,9.58319075 10.69,9.11 L10.69,7.8 C10.7521428,6.76154546 10.2334261,5.77424527 9.34303073,5.23624381 C8.45263533,4.69824235 7.33736467,4.69824235 6.44696927,5.23624381 C5.55657386,5.77424527 5.03785721,6.76154546 5.1,7.8 L5.1,9.11 C5.10005076,9.60213743 5.23121552,10.085376 5.48,10.51 C4.97794835,10.645717 4.48384913,10.8093039 4,11 C3.40067004,11.2651926 3.01026778,11.8547 3,12.51 L3,14.3 L3,14.45 C3.19375117,15.0435191 3.74566731,15.4463776 4.37,15.45 L11.53,15.45 C12.294046,15.473619 12.9415641,14.8921742 13,14.13 L13,12.55 C12.99086,11.8967884 12.5994492,11.3096721 12,11.05 Z" id="形状"></path>
        </g>
    </g>
</svg>