<?xml version="1.0" encoding="UTF-8"?>
<svg width="30px" height="30px" viewBox="0 0 30 30" version="1.1" xmlns="http://www.w3.org/2000/svg" xmlns:xlink="http://www.w3.org/1999/xlink">
    <!-- Generator: Sketch 52.5 (67469) - http://www.bohemiancoding.com/sketch -->
    <title>icon/日历</title>
    <desc>Created with Sketch.</desc>
    <g id="icon/日历" stroke="none" stroke-width="1" fill="none" fill-rule="evenodd">
        <path d="M22.86,5 L20,5 L20,4.94 C20,4.42085234 19.5791477,4 19.06,4 L18.94,4 C18.6906965,4 18.4516038,4.09903543 18.2753196,4.27531963 C18.0990354,4.45160382 18,4.6906965 18,4.94 L18,5 L12,5 L12,4.94 C12,4.42085234 11.5791477,4 11.06,4 L10.94,4 C10.4208523,4 10,4.42085234 10,4.94 L10,5 L7.14,5 C5.95811064,5 5,5.95811064 5,7.14 L5,23.86 C5,24.4275633 5.22546364,24.9718807 5.62679149,25.3732085 C6.02811934,25.7745364 6.57243671,26 7.14,26 L22.86,26 C23.4275633,26 23.9718807,25.7745364 24.3732085,25.3732085 C24.7745364,24.9718807 25,24.4275633 25,23.86 L25,7.14 C25,5.95811064 24.0418894,5 22.86,5 Z M7.14,7 L10,7 L10,7.06 C10,7.57914766 10.4208523,8 10.94,8 L11.06,8 C11.5791477,8 12,7.57914766 12,7.06 L12,7 L18,7 L18,7.06 C18,7.57914766 18.4208523,8 18.94,8 L19.06,8 C19.3093035,8 19.5483962,7.90096457 19.7246804,7.72468037 C19.9009646,7.54839618 20,7.3093035 20,7.06 L20,7 L22.86,7 C22.9373199,7 23,7.06268014 23,7.14 L23,9.28 L7,9.28 L7,7.14 C7,7.06268014 7.06268014,7 7.14,7 Z M22.86,24 L7.14,24 C7.06268014,24 7,23.9373199 7,23.86 L7,11.28 L23,11.28 L23,23.86 C23,23.9373199 22.9373199,24 22.86,24 Z M18.5,15 L11.5,15 C10.9477153,15 10.5,15.4477153 10.5,16 C10.5,16.5522847 10.9477153,17 11.5,17 L18.5,17 C19.0522847,17 19.5,16.5522847 19.5,16 C19.5,15.4477153 19.0522847,15 18.5,15 Z M18.5,19 L11.5,19 C10.9477153,19 10.5,19.4477153 10.5,20 C10.5,20.5522847 10.9477153,21 11.5,21 L18.5,21 C19.0522847,21 19.5,20.5522847 19.5,20 C19.5,19.4477153 19.0522847,19 18.5,19 Z" id="形状" fill="#FFFFFF" fill-rule="nonzero"></path>
    </g>
</svg>