<?xml version="1.0" encoding="UTF-8"?>
<svg width="30px" height="30px" viewBox="0 0 30 30" version="1.1" xmlns="http://www.w3.org/2000/svg" xmlns:xlink="http://www.w3.org/1999/xlink">
    <!-- Generator: Sketch 52.5 (67469) - http://www.bohemiancoding.com/sketch -->
    <title>icon/目标制定</title>
    <desc>Created with Sketch.</desc>
    <g id="icon/目标制定" stroke="none" stroke-width="1" fill="none" fill-rule="evenodd">
        <path d="M20.5,9 C21.0522847,9 21.5,9.44771525 21.5,10 C21.5,10.5522847 21.0522847,11 20.5,11 L12.5,11 C11.9477153,11 11.5,10.5522847 11.5,10 C11.5,9.44771525 11.9477153,9 12.5,9 L20.5,9 Z M9.5,11 C8.94771525,11 8.5,10.5522847 8.5,10 C8.5,9.44771525 8.94771525,9 9.5,9 C10.0522847,9 10.5,9.44771525 10.5,10 C10.5,10.5522847 10.0522847,11 9.5,11 Z M9.5,16 C8.94771525,16 8.5,15.5522847 8.5,15 C8.5,14.4477153 8.94771525,14 9.5,14 C10.0522847,14 10.5,14.4477153 10.5,15 C10.5,15.5522847 10.0522847,16 9.5,16 Z M9.5,21 C8.94771525,21 8.5,20.5522847 8.5,20 C8.5,19.4477153 8.94771525,19 9.5,19 C10.0522847,19 10.5,19.4477153 10.5,20 C10.5,20.5522847 10.0522847,21 9.5,21 Z M20.5,14 C21.0522847,14 21.5,14.4477153 21.5,15 C21.5,15.5522847 21.0522847,16 20.5,16 L12.5,16 C11.9477153,16 11.5,15.5522847 11.5,15 C11.5,14.4477153 11.9477153,14 12.5,14 L20.5,14 Z M20.5,19 C21.0522847,19 21.5,19.4477153 21.5,20 C21.5,20.5522847 21.0522847,21 20.5,21 L12.5,21 C11.9477153,21 11.5,20.5522847 11.5,20 C11.5,19.4477153 11.9477153,19 12.5,19 L20.5,19 Z M22.81,4 C24.0195036,4 25,4.9804964 25,6.19 L25,23.81 C25,25.0195036 24.0195036,26 22.81,26 L7.19,26 C5.9804964,26 5,25.0195036 5,23.81 L5,6.19 C5,4.9804964 5.9804964,4 7.19,4 L22.81,4 Z M23,23.81 L23,6.19 C22.9949774,6.08721816 22.9127818,6.00502258 22.81,6 L7.19,6 C7.08721816,6.00502258 7.00502258,6.08721816 7,6.19 L7,23.81 C7.00502258,23.9127818 7.08721816,23.9949774 7.19,24 L22.81,24 C22.9127818,23.9949774 22.9949774,23.9127818 23,23.81 Z" id="合并形状" fill="#FFFFFF"></path>
    </g>
</svg>