<?xml version="1.0" encoding="UTF-8"?>
<svg width="30px" height="30px" viewBox="0 0 30 30" version="1.1" xmlns="http://www.w3.org/2000/svg" xmlns:xlink="http://www.w3.org/1999/xlink">
    <!-- Generator: Sketch 52.5 (67469) - http://www.bohemiancoding.com/sketch -->
    <title>icon/收入试算</title>
    <desc>Created with Sketch.</desc>
    <g id="icon/收入试算" stroke="none" stroke-width="1" fill="none" fill-rule="evenodd">
        <path d="M17,9.75 L22,9.75 L22,11.25 L17,11.25 L17,9.75 Z M17,17.25 L22,17.25 L22,18.75 L17,18.75 L17,17.25 Z M17,19.75 L22,19.75 L22,21.25 L17,21.25 L17,19.75 Z M24,4 C25.1045695,4 26,4.8954305 26,6 L26,24 C26,25.1045695 25.1045695,26 24,26 L6,26 C4.8954305,26 4,25.1045695 4,24 L4,6 C4,4.8954305 4.8954305,4 6,4 L24,4 Z M24,24 L24,6 L6,6 L6,24 L24,24 Z M12.25,9.75 C12.6642136,9.75 13,10.0857864 13,10.5 C13,10.9142136 12.6642136,11.25 12.25,11.25 L11.25,11.25 L11.25,12.25 C11.25,12.6642136 10.9142136,13 10.5,13 C10.0857864,13 9.75,12.6642136 9.75,12.25 L9.75,11.25 L8.75,11.25 C8.33578644,11.25 8,10.9142136 8,10.5 C8,10.0857864 8.33578644,9.75 8.75,9.75 L9.75,9.75 L9.75,8.75 C9.75,8.33578644 10.0857864,8 10.5,8 C10.9142136,8 11.25,8.33578644 11.25,8.75 L11.25,9.75 L12.25,9.75 Z M12.26,17.73 C12.4029478,17.8692878 12.4835699,18.0604125 12.4835699,18.26 C12.4835699,18.4595875 12.4029478,18.6507122 12.26,18.79 L11.56,19.5 L12.26,20.21 C12.4029478,20.3492878 12.4835699,20.5404125 12.4835699,20.74 C12.4835699,20.9395875 12.4029478,21.1307122 12.26,21.27 C11.9671825,21.5624534 11.4928175,21.5624534 11.2,21.27 L10.5,20.56 L9.79,21.27 C9.60302942,21.4706532 9.32144446,21.5532492 9.05571109,21.4853855 C8.78997772,21.4175219 8.5824781,21.2100223 8.51461446,20.9442889 C8.44675082,20.6785555 8.52934682,20.3969706 8.73,20.21 L9.44,19.5 L8.73,18.79 C8.52934682,18.6030294 8.44675082,18.3214445 8.51461446,18.0557111 C8.5824781,17.7899777 8.78997772,17.5824781 9.05571109,17.5146145 C9.32144446,17.4467508 9.60302942,17.5293468 9.79,17.73 L10.5,18.44 L11.2,17.73 C11.4928175,17.4375466 11.9671825,17.4375466 12.26,17.73 Z" id="合并形状" fill="#FFFFFF" fill-rule="nonzero"></path>
    </g>
</svg>